@startuml

    package "historico de cumprimento de medidas socioeducativas"{

         class Family {
            -ObjectID id
            -boolean livinInShelter
            -Date createdAt
            -Date updatedAt
            -String fullNameOfReferencePerson
            -String socialName
            -String motherName
            -Number referencePersonNIS
            -String referencePersonCPF
            -RG referencePersonRG
            -String adress
            -String adressNumber
            -String complement
            -String neighborhood
            -String CEP
            -String referenceAdressPoints
            -TYPE_LOCATION locationType
            -ENTRY_TYPE entryType
            -String whoRefered
            -String familyFirstDemand
            -ageGroup ageGroup
            -EducationalConditionsOfFamily educationalConditionsOfFamily
            -SchoolVunerabilityIndex schoolVunerabilityIndex
            -work_conditions work_conditions
            -Person_with_disability person_with_disability
            -bool hasBasicsActivitiesOfDailyLiving
            -bool hasFoodInsecurity
            -bool hasSeriusIllness
            -FamilyAndCommunityCoexistence familyAndCommunityCoexistence
            -bool hasMemberWithControllerMedication
            -bool hasAlcoholismProblem
            -bool hasDrugAddictionProblem
            -List<history_for_teenager> history_for_teenagers
            -List<history_for_teenager_LA_or_PSC> history_for_teenager_LA_or_PSCs
            -List<Benefits_access> benefits_access
            -List<person_with_serius_illness> persons_with_serius_illness
            -List<BolsaFamiliaSchoolNoncomplianceNote> bolsaFamiliaSchoolNoncomplianceNote
            -List<person_with_controller_medication> persons_with_controller_medication
            -List<person_with_alcoholism_problem> persons_with_alcoholism_problem
            -List<person_with_drug_addiction_problem> persons_with_drug_addiction_problem
            -List<PregnantPerson> pregnantPersons
            -List<BolsaFamiliaHealthNoncomplianceNote> bolsaFamiliaHealthNoncomplianceNotes
            -map<String,dynamic> familySpecifics
            -map<String,Bool> socialBenefits
            -List<String> referencePhone
            -List<FamilyMember> familyMembers
            -List<violence_of_rights> violence_of_rights
            -List<String> observations
        }

        object history_for_teenager{
            Number nOrder 
            String firstName
            TYPE_OF_HISTORY type_of_history
            Number number_of_process
            Data initial_date
            Data final_date
            List<String> observations
        }

        object history_for_teenager_LA_or_PSC{
            Number nOrder
            bool has_CREAS_support
            Data initial_date
            List<String> observations
        }

        enum TYPE_OF_HISTORY{
            LA
            PSC
            advertence
            repair_damage_obrigation
            semi_freedom
            admission
        }

        Family <-- history_for_teenager
        Family <-- history_for_teenager_LA_or_PSC
        history_for_teenager <-- TYPE_OF_HISTORY
    }

@enduml